<svg width="357.803" height="83.6" viewBox="0 0 357.803 83.6" xmlns="http://www.w3.org/2000/svg"><g id="svgGroup" stroke-linecap="round" fill-rule="evenodd" font-size="9pt" stroke="#000" stroke-width="0.25mm" fill="#000" style="stroke:#000;stroke-width:0.25mm;fill:#000"><path d="M 78.103 65.2 L 80.444 63.737 A 26.312 26.312 0 0 1 81.772 61.871 A 35.077 35.077 0 0 1 82.303 61.2 Q 81.903 60.1 81.903 58.5 A 7.337 7.337 0 0 1 83.995 53.355 A 10.564 10.564 0 0 1 84.953 52.45 A 13.719 13.719 0 0 1 86.939 51.051 Q 88.136 50.368 89.309 50.09 A 6.903 6.903 0 0 1 90.903 49.9 Q 95.71 49.9 96.729 53.999 A 10.4 10.4 0 0 1 97.003 56.5 A 12.092 12.092 0 0 1 96.279 60.494 Q 95.709 62.125 94.692 63.85 A 27.544 27.544 0 0 1 93.203 66.1 L 94.403 66.1 A 11.425 11.425 0 0 0 97.162 65.781 A 8.904 8.904 0 0 0 99.002 65.112 A 0.954 0.954 0 0 1 99.084 65.019 A 1.253 1.253 0 0 1 99.103 65 Q 99.903 64.6 104.153 61.35 Q 108.366 58.129 109.631 58.1 A 0.992 0.992 0 0 1 109.653 58.1 Q 110.841 58.1 110.9 59.41 A 3.122 3.122 0 0 1 110.903 59.55 A 2.686 2.686 0 0 1 110.757 60.33 Q 110.236 61.984 107.853 65.5 A 250.401 250.401 0 0 0 107.138 66.56 Q 104.894 69.908 104.807 70.321 A 0.142 0.142 0 0 0 104.803 70.35 Q 104.803 70.7 105.003 70.7 A 1.477 1.477 0 0 0 105.567 70.467 Q 107.536 69.342 115.403 62.8 Q 124.559 55.186 125.634 54.91 A 0.286 0.286 0 0 1 125.703 54.9 A 2.325 2.325 0 0 1 126.283 54.966 Q 127.028 55.158 127.17 55.913 A 2.096 2.096 0 0 1 127.203 56.3 A 1.537 1.537 0 0 1 127.082 56.79 Q 126.556 58.184 123.753 62.45 Q 120.767 66.993 119.542 69.028 A 38.515 38.515 0 0 0 119.203 69.6 Q 119.3 69.697 119.632 69.7 A 2.366 2.366 0 0 0 119.653 69.7 A 0.632 0.632 0 0 0 119.872 69.622 Q 120.59 69.269 123.319 67.325 A 188.448 188.448 0 0 0 123.703 67.05 Q 127.403 64.4 131.403 61.4 A 651.581 651.581 0 0 1 132.787 60.365 Q 135.534 58.316 136.103 57.95 A 3.488 3.488 0 0 1 136.573 57.694 Q 137.009 57.5 137.403 57.5 A 1.621 1.621 0 0 1 137.926 57.624 Q 138.413 57.84 138.55 58.404 A 2.11 2.11 0 0 1 138.603 58.9 Q 138.603 59.4 135.153 64.15 Q 131.703 68.9 131.703 70.2 A 0.666 0.666 0 0 0 132.079 70.795 Q 132.602 71.1 133.853 71.1 Q 135.578 71.1 138.622 69.845 A 39.682 39.682 0 0 0 140.203 69.15 Q 144.403 67.2 147.603 65.2 L 148.795 64.455 A 17.526 17.526 0 0 1 150.24 62.711 Q 151.666 61.168 153.622 59.608 A 41.885 41.885 0 0 1 154.603 58.85 Q 161.568 53.626 166.657 52.84 A 11.427 11.427 0 0 1 168.403 52.7 Q 171.703 52.7 171.703 55.5 Q 171.703 57.1 169.703 58.9 A 21.534 21.534 0 0 1 168.995 59.512 Q 167.553 60.7 166.903 60.7 Q 166.303 60.7 166.303 60 L 166.603 59.3 A 11.028 11.028 0 0 0 167.348 58.531 Q 168.403 57.319 168.403 56.4 A 2.021 2.021 0 0 0 168.321 55.797 Q 168.115 55.138 167.393 54.963 A 2.511 2.511 0 0 0 166.803 54.9 Q 163.999 54.9 159.621 58.014 A 43.692 43.692 0 0 0 157.353 59.75 A 31.179 31.179 0 0 0 154.891 61.966 Q 151.403 65.491 151.403 68.4 A 1.711 1.711 0 0 0 151.547 69.128 Q 151.886 69.856 153.021 69.976 A 4.577 4.577 0 0 0 153.503 70 Q 155.603 70 158.353 68.25 A 42.457 42.457 0 0 0 160.829 66.555 Q 162.01 65.681 162.99 64.806 A 25.851 25.851 0 0 0 163.053 64.75 Q 165.003 63 165.203 63 Q 166.101 63.09 166.193 63.825 A 1.418 1.418 0 0 1 166.203 64 A 0.639 0.639 0 0 1 166.149 64.213 Q 165.954 64.707 165.064 66.009 A 51.733 51.733 0 0 1 164.653 66.6 Q 163.437 68.326 163.175 69.498 A 2.767 2.767 0 0 0 163.103 70.1 A 0.83 0.83 0 0 0 163.596 70.894 Q 163.962 71.079 164.601 71.098 A 5.071 5.071 0 0 0 164.753 71.1 Q 166.403 71.1 170.603 69.15 Q 174.803 67.2 178.003 65.2 L 178.068 65.159 A 0.954 0.954 0 0 1 178.184 65.019 A 1.253 1.253 0 0 1 178.203 65 A 19.005 19.005 0 0 0 179.948 63.917 Q 180.825 63.31 181.789 62.531 A 47.281 47.281 0 0 0 183.803 60.8 A 6.589 6.589 0 0 1 183.311 58.547 A 7.639 7.639 0 0 1 183.303 58.2 A 7.042 7.042 0 0 1 184.346 54.577 Q 185.214 53.108 186.803 51.7 Q 190.303 48.6 192.703 48.6 Q 193.823 48.6 193.978 49.528 A 1.958 1.958 0 0 1 194.003 49.85 Q 194.003 51.1 190.003 55.9 A 11.704 11.704 0 0 1 189.362 56.634 A 13.59 13.59 0 0 1 189.103 56.9 Q 188.603 57.4 188.053 58.05 Q 187.632 58.548 187.357 58.84 A 7.083 7.083 0 0 1 187.203 59 A 47.449 47.449 0 0 0 187.498 59.292 Q 188.023 59.808 189.003 60.75 Q 190.303 62 191.103 62.8 Q 193.303 65 193.303 68.3 A 5.317 5.317 0 0 1 192.042 71.699 Q 191.393 72.506 190.41 73.244 A 13.789 13.789 0 0 1 189.203 74.05 A 17.14 17.14 0 0 1 183.739 76.197 A 15.767 15.767 0 0 1 180.653 76.5 A 11.172 11.172 0 0 1 179.141 76.407 Q 177.468 76.177 176.748 75.38 A 2.195 2.195 0 0 1 176.203 73.85 A 3.731 3.731 0 0 1 176.984 71.622 Q 177.876 70.4 179.784 69.29 A 17.25 17.25 0 0 1 180.303 69 Q 184.403 66.8 188.903 66 Q 188.439 65.381 187.345 64.462 A 28.406 28.406 0 0 0 186.653 63.9 Q 185.003 62.6 184.403 61.7 A 75.066 75.066 0 0 1 182.726 63.195 Q 181.937 63.876 181.275 64.397 A 20.634 20.634 0 0 1 181.072 64.556 A 1.484 1.484 0 0 1 180.789 64.793 A 2.624 2.624 0 0 1 180.636 64.885 A 20.634 20.634 0 0 1 180.062 65.291 A 8.135 8.135 0 0 1 179.227 65.795 A 144.387 144.387 0 0 1 175.629 68.127 Q 165.909 74.2 161.603 74.2 A 3.743 3.743 0 0 1 160.574 74.071 Q 159.003 73.621 159.003 71.6 A 6.758 6.758 0 0 1 159.175 70.114 A 8.426 8.426 0 0 1 159.403 69.3 Q 158.703 70.1 155.253 71.75 A 20.611 20.611 0 0 1 152.87 72.723 Q 151.629 73.136 150.501 73.297 A 9.879 9.879 0 0 1 149.103 73.4 Q 146.808 73.4 146.464 71.594 A 3.71 3.71 0 0 1 146.403 70.9 A 9.895 9.895 0 0 1 147.396 66.741 A 144.387 144.387 0 0 1 145.229 68.127 Q 135.509 74.2 131.203 74.2 A 5.872 5.872 0 0 1 130.072 74.101 Q 128.275 73.747 128.118 72.123 A 3.353 3.353 0 0 1 128.103 71.8 A 7.863 7.863 0 0 1 129.137 67.928 A 9.621 9.621 0 0 1 129.453 67.4 A 183.98 183.98 0 0 1 130.416 65.916 Q 130.797 65.336 131.144 64.82 A 92.592 92.592 0 0 1 131.803 63.85 Q 132.764 62.457 132.802 62.31 A 0.042 0.042 0 0 0 132.803 62.3 A 1051.159 1051.159 0 0 1 129.63 64.612 Q 119.652 71.852 117.546 72.954 A 4.523 4.523 0 0 1 117.353 73.05 A 21.348 21.348 0 0 1 116.455 73.443 Q 115.139 73.981 114.451 73.999 A 1.793 1.793 0 0 1 114.403 74 A 0.687 0.687 0 0 1 113.78 73.603 Q 113.592 73.268 113.532 72.648 A 6.732 6.732 0 0 1 113.503 72 L 120.703 60.8 Q 119.678 61.227 114.713 64.938 A 346.869 346.869 0 0 0 112.903 66.3 A 296.223 296.223 0 0 0 109.784 68.694 Q 106.239 71.455 103.749 73.597 A 85.664 85.664 0 0 0 102.603 74.6 Q 101.348 76.124 100.173 76.282 A 2.028 2.028 0 0 1 99.903 76.3 A 1.939 1.939 0 0 1 99.275 76.044 Q 98.603 75.606 98.603 74.6 A 0.556 0.556 0 0 1 98.66 74.42 Q 99.059 73.513 102.253 68.7 Q 105.825 63.318 105.901 62.772 A 0.157 0.157 0 0 0 105.903 62.75 A 1.21 1.21 0 0 0 105.894 62.597 Q 105.856 62.3 105.653 62.3 A 0.596 0.596 0 0 0 105.507 62.322 Q 105.278 62.381 104.888 62.601 A 7.1 7.1 0 0 0 104.803 62.65 Q 104.391 62.891 103.884 63.249 A 21.533 21.533 0 0 0 103.403 63.6 Q 102.603 64.2 102.403 64.3 L 100.797 65.328 A 4.205 4.205 0 0 1 100.598 65.517 A 5.905 5.905 0 0 1 100.503 65.6 A 12.893 12.893 0 0 1 95.17 67.396 A 16.307 16.307 0 0 1 93.303 67.5 L 92.103 67.5 A 29.083 29.083 0 0 1 88.773 70.776 A 24.071 24.071 0 0 1 86.353 72.55 A 17.712 17.712 0 0 1 84.617 73.536 Q 82.754 74.449 81.267 74.497 A 5.073 5.073 0 0 1 81.103 74.5 A 3.379 3.379 0 0 1 79.711 74.234 Q 78.265 73.586 78.043 71.357 A 8.688 8.688 0 0 1 78.003 70.5 A 9.316 9.316 0 0 1 78.558 67.457 A 15.904 15.904 0 0 1 79.225 65.864 A 144.387 144.387 0 0 1 75.729 68.127 Q 66.009 74.2 61.703 74.2 A 3.454 3.454 0 0 1 60.643 74.051 Q 59.524 73.691 59.218 72.454 A 4.402 4.402 0 0 1 59.103 71.4 A 6.574 6.574 0 0 1 59.284 69.931 Q 59.601 68.552 60.475 66.854 A 21.011 21.011 0 0 1 60.503 66.8 Q 61.903 64.1 63.303 62.3 L 64.603 60.5 Q 60.103 63.9 55.303 68.15 Q 50.503 72.4 48.003 74.55 A 26.614 26.614 0 0 1 47.118 75.281 Q 45.316 76.7 44.503 76.7 A 0.954 0.954 0 0 1 44.003 76.576 Q 43.62 76.346 43.531 75.69 A 3.261 3.261 0 0 1 43.503 75.25 Q 43.503 74.016 46.909 67.601 A 225.749 225.749 0 0 1 48.203 65.2 Q 52.903 56.6 59.053 46.65 A 165.342 165.342 0 0 1 67.793 33.843 A 141.602 141.602 0 0 1 71.953 28.6 A 64.369 64.369 0 0 1 74.561 25.644 Q 78.503 21.465 81.084 20.681 A 3.859 3.859 0 0 1 82.203 20.5 Q 83.507 20.5 84.131 21.559 A 2.997 2.997 0 0 1 84.303 21.9 A 2.064 2.064 0 0 1 84.561 22.603 A 2.803 2.803 0 0 1 84.603 23.1 Q 84.603 29.91 64.437 49.093 A 319.212 319.212 0 0 1 63.903 49.6 A 183.434 183.434 0 0 1 58.635 54.541 A 156.05 156.05 0 0 1 56.303 56.6 Q 49.96 67.283 48.911 70.373 A 3.193 3.193 0 0 0 48.703 71.3 A 1.407 1.407 0 0 0 49.256 71.065 Q 51.176 69.934 58.753 63.35 A 235.162 235.162 0 0 1 60.923 61.487 Q 66.599 56.675 68.663 55.667 A 2.138 2.138 0 0 1 69.503 55.4 A 2.661 2.661 0 0 1 70.107 55.462 Q 71.103 55.695 71.103 56.8 Q 71.103 57.821 69.38 59.876 A 23.775 23.775 0 0 1 69.103 60.2 Q 67.103 62.5 65.153 65.2 A 14.464 14.464 0 0 0 64.167 66.75 Q 63.203 68.523 63.203 70 A 1.007 1.007 0 0 0 63.362 70.577 Q 63.628 70.971 64.339 71.068 A 3.809 3.809 0 0 0 64.853 71.1 Q 66.503 71.1 70.703 69.15 Q 74.903 67.2 78.103 65.2 Z M 234.403 57.4 L 220.903 81.5 L 218.803 83 A 9.169 9.169 0 0 1 218.184 83.283 Q 217.581 83.53 217.139 83.585 A 1.941 1.941 0 0 1 216.903 83.6 A 1.156 1.156 0 0 1 216.531 83.545 Q 216.016 83.37 216.003 82.636 A 2.163 2.163 0 0 1 216.003 82.6 Q 216.003 82.16 216.218 81.612 A 5.071 5.071 0 0 1 216.403 81.2 L 230.803 55.9 A 37.931 37.931 0 0 1 224.412 52.269 A 29.229 29.229 0 0 1 219.103 47.45 A 18.65 18.65 0 0 1 215.769 41.923 A 16.623 16.623 0 0 1 214.703 36 A 16.911 16.911 0 0 1 214.941 33.022 Q 215.874 27.835 220.463 27.703 A 8.417 8.417 0 0 1 220.703 27.7 Q 224.528 27.7 229.459 31.355 A 33.574 33.574 0 0 1 229.653 31.5 A 37.399 37.399 0 0 1 235.097 36.566 A 49.929 49.929 0 0 1 239.003 41.6 L 258.503 7.2 Q 259.421 5.865 261.522 5.644 A 8.426 8.426 0 0 1 262.403 5.6 A 1.63 1.63 0 0 1 262.641 5.616 Q 263.103 5.684 263.103 6.05 A 5.218 5.218 0 0 1 262.761 6.763 Q 260.722 10.678 246.534 35.924 A 14762.692 14762.692 0 0 1 241.203 45.4 Q 244.703 51.7 246.303 58.5 Q 248.794 58.844 252.022 58.892 A 71.997 71.997 0 0 0 253.103 58.9 A 1084.7 1084.7 0 0 1 259.259 47.106 Q 267.848 30.88 279.801 9.378 A 3409.579 3409.579 0 0 1 283.803 2.2 Q 284.829 0.335 287.507 0.035 A 8.861 8.861 0 0 1 287.903 0 A 1.723 1.723 0 0 1 288.185 0.021 Q 288.703 0.107 288.703 0.55 A 1.36 1.36 0 0 1 288.657 0.877 Q 288.529 1.386 288.049 2.221 A 13.478 13.478 0 0 1 288.003 2.3 A 89.99 89.99 0 0 0 287.755 2.73 Q 286.701 4.562 282.496 11.958 A 14147.646 14147.646 0 0 0 281.903 13 Q 265.892 40.856 258.689 53.831 A 600.972 600.972 0 0 0 255.903 58.9 A 41.759 41.759 0 0 0 267.255 56.683 A 37.819 37.819 0 0 0 271.303 55 A 1.008 1.008 0 0 1 271.58 55.035 Q 271.891 55.124 271.973 55.441 A 1.031 1.031 0 0 1 272.003 55.7 A 0.924 0.924 0 0 1 271.769 56.303 Q 271.523 56.598 271.018 56.846 A 4.308 4.308 0 0 1 270.903 56.9 A 33.872 33.872 0 0 1 262.238 59.795 A 45.805 45.805 0 0 1 254.903 60.6 A 6601.085 6601.085 0 0 0 253.777 62.76 Q 250.628 68.8 250.105 69.841 A 4.761 4.761 0 0 0 250.003 70.05 Q 249.921 70.254 249.673 70.792 A 74.824 74.824 0 0 1 249.553 71.05 A 10.939 10.939 0 0 1 249.339 71.485 Q 249.125 71.896 248.931 72.163 A 3.066 3.066 0 0 1 248.903 72.2 A 3.509 3.509 0 0 1 248.607 72.626 Q 248.201 73.119 247.752 73.189 A 0.968 0.968 0 0 1 247.603 73.2 A 1.804 1.804 0 0 1 246.743 73.008 Q 245.996 72.609 245.843 71.385 A 5.539 5.539 0 0 1 245.803 70.7 Q 245.803 65.4 244.503 59.9 A 53.428 53.428 0 0 1 237.98 58.548 A 44.333 44.333 0 0 1 234.403 57.4 Z M 280.603 60 L 280.903 59.3 A 11.028 11.028 0 0 0 281.648 58.531 Q 282.703 57.319 282.703 56.4 A 2.021 2.021 0 0 0 282.621 55.797 Q 282.415 55.138 281.693 54.963 A 2.511 2.511 0 0 0 281.103 54.9 Q 278.299 54.9 273.921 58.014 A 43.692 43.692 0 0 0 271.653 59.75 A 31.179 31.179 0 0 0 269.191 61.966 Q 265.703 65.491 265.703 68.4 A 1.711 1.711 0 0 0 265.847 69.128 Q 266.186 69.856 267.321 69.976 A 4.577 4.577 0 0 0 267.803 70 Q 269.903 70 272.653 68.25 A 42.457 42.457 0 0 0 275.129 66.555 Q 276.31 65.681 277.29 64.806 A 25.851 25.851 0 0 0 277.353 64.75 Q 279.303 63 279.503 63 Q 280.401 63.09 280.493 63.825 A 1.418 1.418 0 0 1 280.503 64 A 0.639 0.639 0 0 1 280.449 64.213 Q 280.254 64.707 279.364 66.009 A 51.733 51.733 0 0 1 278.953 66.6 Q 277.737 68.326 277.475 69.498 A 2.767 2.767 0 0 0 277.403 70.1 A 0.83 0.83 0 0 0 277.896 70.894 Q 278.262 71.079 278.901 71.098 A 5.071 5.071 0 0 0 279.053 71.1 Q 280.703 71.1 284.903 69.15 Q 289.103 67.2 292.303 65.2 L 294.96 63.539 A 68.492 68.492 0 0 1 300.399 56.127 A 75.82 75.82 0 0 1 301.103 55.3 A 1.843 1.843 0 0 1 301.514 54.828 Q 301.913 54.511 302.465 54.5 A 1.996 1.996 0 0 1 302.503 54.5 A 1.997 1.997 0 0 1 303.403 54.725 Q 303.853 54.95 304.303 55.4 Q 304.303 55.8 303.003 57.2 A 12.674 12.674 0 0 0 302.348 57.978 Q 301.025 59.661 298.603 63.45 A 61.432 61.432 0 0 0 297.55 65.155 Q 295.503 68.6 295.503 69.9 Q 295.503 70.722 296.517 71.004 A 3.604 3.604 0 0 0 297.003 71.1 Q 299.003 71.1 303.203 69.15 A 79.415 79.415 0 0 0 307.153 67.188 A 58.419 58.419 0 0 0 310.259 65.412 A 27.061 27.061 0 0 1 312.244 63.116 A 46.27 46.27 0 0 1 315.153 60.35 Q 322.503 53.9 329.103 53 Q 334.803 41.3 343.153 31.1 Q 350.453 22.182 354.811 21.061 A 4.788 4.788 0 0 1 356.003 20.9 Q 356.803 20.9 357.303 21.75 A 3.996 3.996 0 0 1 357.636 22.458 A 2.848 2.848 0 0 1 357.803 23.4 A 5.334 5.334 0 0 1 357.401 25.153 Q 355.823 29.402 348.053 40 A 215.177 215.177 0 0 1 337.005 53.887 A 169.501 169.501 0 0 1 328.303 63.2 A 22.086 22.086 0 0 0 327.653 67.381 A 26.111 26.111 0 0 0 327.603 69 Q 327.603 71.738 329.632 72.058 A 3.674 3.674 0 0 0 330.203 72.1 Q 330.903 72.1 332.553 71.35 A 53.607 53.607 0 0 1 332.944 71.174 Q 334.234 70.6 334.453 70.6 Q 334.681 70.6 334.701 70.766 A 0.28 0.28 0 0 1 334.703 70.8 A 1.667 1.667 0 0 1 334.438 71.666 Q 334.085 72.25 333.263 72.856 A 9.821 9.821 0 0 1 332.603 73.3 A 9.245 9.245 0 0 1 330.667 74.222 A 7.115 7.115 0 0 1 328.403 74.6 A 4.412 4.412 0 0 1 326.468 74.205 Q 324.605 73.306 324.274 70.363 A 12.249 12.249 0 0 1 324.203 69 A 28.261 28.261 0 0 1 324.209 68.388 Q 324.224 67.727 324.271 67.265 A 6.7 6.7 0 0 1 324.303 67 Q 316.651 73.696 312.43 73.987 A 5.474 5.474 0 0 1 312.053 74 Q 307.929 74 307.807 71.27 A 3.787 3.787 0 0 1 307.803 71.1 A 6.882 6.882 0 0 1 308.485 68.28 A 14.384 14.384 0 0 1 308.708 67.825 A 144.387 144.387 0 0 1 308.229 68.127 Q 298.509 74.2 294.203 74.2 A 3.743 3.743 0 0 1 293.174 74.071 Q 291.603 73.621 291.603 71.6 Q 291.603 69.503 293.458 66.071 A 36.683 36.683 0 0 1 293.658 65.708 A 144.387 144.387 0 0 1 289.929 68.127 Q 280.209 74.2 275.903 74.2 A 3.743 3.743 0 0 1 274.874 74.071 Q 273.303 73.621 273.303 71.6 A 6.758 6.758 0 0 1 273.475 70.114 A 8.426 8.426 0 0 1 273.703 69.3 Q 273.003 70.1 269.553 71.75 A 20.611 20.611 0 0 1 267.17 72.723 Q 265.929 73.136 264.801 73.297 A 9.879 9.879 0 0 1 263.403 73.4 Q 261.108 73.4 260.764 71.594 A 3.71 3.71 0 0 1 260.703 70.9 Q 260.703 65.364 267.922 59.608 A 41.885 41.885 0 0 1 268.903 58.85 Q 275.868 53.626 280.957 52.84 A 11.427 11.427 0 0 1 282.703 52.7 Q 286.003 52.7 286.003 55.5 Q 286.003 57.1 284.003 58.9 A 21.534 21.534 0 0 1 283.295 59.512 Q 281.853 60.7 281.203 60.7 Q 280.603 60.7 280.603 60 Z M 93.903 7.6 L 64.403 7.5 A 96.784 96.784 0 0 0 41.226 10.6 A 90.597 90.597 0 0 0 39.753 11 A 104.096 104.096 0 0 0 31.538 13.658 Q 27.571 15.137 24.252 16.815 A 52.319 52.319 0 0 0 20.503 18.9 Q 13.003 23.5 8.603 28.3 Q 5.083 32.14 4.379 35.084 A 6.085 6.085 0 0 0 4.203 36.5 A 3.795 3.795 0 0 0 4.769 38.618 Q 5.745 40.114 8.4 40.481 A 13.963 13.963 0 0 0 10.303 40.6 A 19.11 19.11 0 0 0 14.585 40.061 Q 18.826 39.08 24.309 36.313 A 78.658 78.658 0 0 0 26.153 35.35 A 67.205 67.205 0 0 0 37.618 27.628 A 57.865 57.865 0 0 0 42.703 22.8 A 13.454 13.454 0 0 1 43.091 22.426 Q 43.679 21.884 44.009 21.747 A 0.52 0.52 0 0 1 44.203 21.7 A 0.183 0.183 0 0 1 44.308 21.729 Q 44.38 21.777 44.397 21.907 A 0.693 0.693 0 0 1 44.403 22 A 1.494 1.494 0 0 1 44.389 22.211 Q 44.366 22.375 44.303 22.5 A 20.624 20.624 0 0 1 41.549 27.043 Q 38.378 31.112 32.573 35.43 A 82.369 82.369 0 0 1 30.603 36.85 Q 21.979 42.879 13.928 44.094 A 26.951 26.951 0 0 1 9.903 44.4 A 25.696 25.696 0 0 1 6.539 44.2 Q 2.917 43.718 1.303 42.082 A 4.612 4.612 0 0 1 0.003 38.7 A 8.527 8.527 0 0 1 0.657 35.574 Q 1.917 32.383 5.603 28.5 A 59.99 59.99 0 0 1 11.578 23.046 Q 15.375 19.998 20.103 17.05 A 73.74 73.74 0 0 1 29.315 12.22 Q 35.027 9.695 41.853 7.65 Q 54.703 3.8 67.603 3.8 Q 99.603 3.8 101.003 3.6 A 24.703 24.703 0 0 1 101.951 3.482 Q 102.745 3.4 103.353 3.4 Q 104.139 3.4 104.275 3.674 A 0.28 0.28 0 0 1 104.303 3.8 A 0.51 0.51 0 0 1 104.239 4.026 Q 104.078 4.341 103.522 4.825 A 9.878 9.878 0 0 1 103.253 5.05 A 5.506 5.506 0 0 1 102.544 5.528 Q 101.744 5.99 100.502 6.452 A 26.409 26.409 0 0 1 99.653 6.75 Q 97.103 7.6 93.903 7.6 Z M 62.603 10.7 L 63.103 11.1 Q 63.103 11.361 57.807 21.231 A 2511.491 2511.491 0 0 1 56.103 24.4 Q 40.396 53.595 32.804 67.911 A 1833.773 1833.773 0 0 0 29.903 73.4 A 3.67 3.67 0 0 1 28.685 74.848 A 5.31 5.31 0 0 1 27.703 75.4 Q 26.439 75.953 25.644 76.069 A 2.717 2.717 0 0 1 25.253 76.1 A 2.405 2.405 0 0 1 24.967 76.085 Q 24.403 76.017 24.403 75.65 A 1.527 1.527 0 0 1 24.536 75.301 Q 25.33 73.549 30.873 63.334 A 2413.833 2413.833 0 0 1 32.903 59.6 Q 41.403 44 49.853 28.55 A 2294.952 2294.952 0 0 0 51.788 25.006 Q 58.279 13.088 58.103 13 A 3.122 3.122 0 0 1 59.064 12.011 Q 59.456 11.748 59.958 11.554 A 5.791 5.791 0 0 1 60.103 11.5 L 62.603 10.7 Z M 354.103 24.9 A 1.568 1.568 0 0 0 354.079 24.611 Q 353.982 24.1 353.503 24.1 A 2.05 2.05 0 0 0 352.586 24.383 Q 350.798 25.325 347.296 29.415 A 80.485 80.485 0 0 0 347.053 29.7 A 81.76 81.76 0 0 0 343.119 34.753 Q 340.191 38.814 337.103 43.95 A 109.847 109.847 0 0 0 333.196 50.99 Q 331.435 54.476 330.182 57.689 A 59.691 59.691 0 0 0 329.403 59.8 Q 338.703 50 346.403 39.5 A 112.423 112.423 0 0 0 349.02 35.788 Q 353.143 29.658 353.922 26.308 A 6.28 6.28 0 0 0 354.103 24.9 Z M 81.303 24.2 Q 81.303 23.2 80.803 23.2 A 2.07 2.07 0 0 0 79.764 23.592 Q 77.622 24.949 73.128 31.012 A 135.348 135.348 0 0 0 72.403 32 A 266.876 266.876 0 0 0 66.227 40.887 Q 63.078 45.61 59.756 50.959 A 440.741 440.741 0 0 0 58.803 52.5 A 251.97 251.97 0 0 0 66.45 45.259 Q 77.373 34.432 80.263 28.14 A 9.713 9.713 0 0 0 81.303 24.2 Z M 231.803 54.2 L 237.503 44.2 Q 233.703 38.5 229.203 35 A 27.028 27.028 0 0 0 226.911 33.388 Q 224.501 31.887 222.569 31.579 A 6.14 6.14 0 0 0 221.603 31.5 Q 218.453 31.5 218.221 35.02 A 8.851 8.851 0 0 0 218.203 35.6 Q 218.203 41.5 221.853 46.3 A 25.323 25.323 0 0 0 227.785 51.868 A 32.642 32.642 0 0 0 231.803 54.2 Z M 91.169 54.003 A 4.218 4.218 0 0 0 90.903 54.1 A 24.329 24.329 0 0 0 89.537 54.858 A 26.464 26.464 0 0 0 84.103 59.2 A 3.742 3.742 0 0 1 84.09 59.158 Q 83.803 58.265 83.803 56.75 A 2.551 2.551 0 0 1 84.212 55.389 Q 84.708 54.589 85.803 53.85 Q 87.803 52.5 90.153 52.5 A 7.632 7.632 0 0 1 91.748 52.658 A 5.333 5.333 0 0 1 94.003 53.7 A 3.823 3.823 0 0 1 95.334 55.779 A 5.619 5.619 0 0 1 95.503 57.2 A 9.395 9.395 0 0 1 94.959 60.272 Q 94.479 61.664 93.575 63.122 A 22.534 22.534 0 0 1 91.603 65.8 A 13.699 13.699 0 0 1 90.188 65.375 A 10.095 10.095 0 0 1 84.903 61.2 A 22.638 22.638 0 0 1 86.529 59.396 Q 87.447 58.472 88.598 57.479 A 56.632 56.632 0 0 1 90.903 55.6 A 8.818 8.818 0 0 0 91.142 55.421 Q 91.745 54.95 91.926 54.614 A 0.565 0.565 0 0 0 92.003 54.35 A 1.039 1.039 0 0 0 91.994 54.21 Q 91.968 54.016 91.861 53.943 A 0.275 0.275 0 0 0 91.703 53.9 A 1.015 1.015 0 0 0 91.628 53.903 Q 91.434 53.917 91.169 54.003 Z M 314.2 71.799 A 3.679 3.679 0 0 0 314.303 71.8 A 3.736 3.736 0 0 0 315.728 71.441 Q 317.976 70.475 321.992 66.907 A 97.691 97.691 0 0 0 324.803 64.3 A 60.711 60.711 0 0 1 326.827 58.306 A 51.769 51.769 0 0 1 327.903 55.8 A 16.135 16.135 0 0 0 323.715 57.524 Q 321.945 58.542 320.136 60.055 A 35.91 35.91 0 0 0 317.803 62.2 A 41.23 41.23 0 0 0 315.777 64.365 Q 312.85 67.749 312.622 69.938 A 3.491 3.491 0 0 0 312.603 70.3 Q 312.603 71.754 314.2 71.799 Z M 235.403 55.7 Q 239.403 57.3 244.003 58.1 A 59.712 59.712 0 0 0 240.749 49.767 A 53.38 53.38 0 0 0 239.803 47.9 Q 235.503 55.5 235.403 55.7 Z M 189.603 67.2 Q 186.203 67.6 183.203 69.05 Q 180.203 70.5 180.203 72.45 A 1.923 1.923 0 0 0 180.421 73.393 Q 180.856 74.181 182.16 74.352 A 6.105 6.105 0 0 0 182.953 74.4 A 9.929 9.929 0 0 0 185.932 73.966 A 8.742 8.742 0 0 0 187.853 73.1 Q 188.995 72.409 189.531 71.634 A 2.486 2.486 0 0 0 190.003 70.2 A 11.35 11.35 0 0 0 189.805 68.049 A 9.925 9.925 0 0 0 189.603 67.2 Z M 247.503 69 L 247.603 70.1 A 38.594 38.594 0 0 1 247.978 69.279 Q 248.847 67.42 251.144 62.749 A 1609.43 1609.43 0 0 1 252.203 60.6 Q 250.47 60.6 246.884 60.229 A 150.467 150.467 0 0 1 246.603 60.2 Q 247.503 64.6 247.503 69 Z M 83.503 63.4 Q 81.903 66.1 81.903 69.4 Q 81.903 70.943 83.079 71.163 A 2.306 2.306 0 0 0 83.503 71.2 A 4.879 4.879 0 0 0 85.318 70.809 Q 87.453 69.95 90.203 67.2 A 13.181 13.181 0 0 1 87.266 66.341 A 8.98 8.98 0 0 1 83.503 63.4 Z M 186.503 58.2 L 189.103 55.4 A 66.136 66.136 0 0 0 189.713 54.663 Q 191.33 52.677 191.633 51.929 A 0.79 0.79 0 0 0 191.703 51.65 A 1.021 1.021 0 0 0 191.675 51.401 Q 191.574 51 191.103 51 Q 189.723 51 188.277 52.088 A 9.049 9.049 0 0 0 187.603 52.65 Q 185.803 54.3 185.803 55.85 A 5.486 5.486 0 0 0 185.87 56.735 Q 186.019 57.647 186.503 58.2 Z M 310.503 42.1 Q 312.003 42.1 312.003 43.6 Q 312.003 44.866 311.006 46.167 A 7.781 7.781 0 0 1 310.603 46.65 A 5.535 5.535 0 0 1 309.605 47.533 A 3.685 3.685 0 0 1 307.503 48.2 A 1.4 1.4 0 0 1 306.834 48.05 Q 306.103 47.659 306.103 46.25 A 3.789 3.789 0 0 1 306.388 44.756 Q 306.742 43.922 307.534 43.322 A 4.534 4.534 0 0 1 307.703 43.2 Q 309.284 42.113 310.474 42.1 A 2.635 2.635 0 0 1 310.503 42.1 Z" vector-effect="non-scaling-stroke"/></g></svg>